<svg xmlns="http://www.w3.org/2000/svg" viewBox="0 0 100 100">
  <rect width="100" height="100" fill="#1a1a2e"/>
  <g fill="#c9a227">
    <!-- Puzzle piece shape -->
    <path d="M20 20 L45 20 L45 30 Q55 30 55 40 Q55 50 45 50 L45 60 L20 60 Z" opacity="0.8"/>
    <path d="M55 20 L80 20 L80 60 L55 60 L55 50 Q45 50 45 40 Q45 30 55 30 Z" opacity="0.6"/>
    <path d="M20 60 L45 60 L45 80 L20 80 Z" opacity="0.5"/>
    <path d="M55 60 L80 60 L80 80 L55 80 Z" opacity="0.4"/>
  </g>
  <!-- Stars -->
  <circle cx="30" cy="35" r="2" fill="#fff" opacity="0.8"/>
  <circle cx="70" cy="45" r="1.5" fill="#fff" opacity="0.6"/>
  <circle cx="50" cy="75" r="1" fill="#fff" opacity="0.5"/>
</svg>
