<svg width="280" height="180" viewBox="0 0 280 180" xmlns="http://www.w3.org/2000/svg">
  <!-- Background -->
  <rect width="280" height="180" fill="#f8f9fa"/>
  
  <!-- Game title -->
  <text x="140" y="25" font-family="Arial" font-size="16" font-weight="bold" fill="#1a1a1a" text-anchor="middle">MEMORY MATCH</text>
  
  <!-- Card grid -->
  <g transform="translate(60, 40)">
    <!-- Row 1 -->
    <rect x="0" y="0" width="35" height="35" rx="4" fill="#667eea"/>
    <text x="17.5" y="25" font-family="Arial" font-size="20" fill="white" text-anchor="middle">🍎</text>
    
    <rect x="45" y="0" width="35" height="35" rx="4" fill="#667eea"/>
    <text x="62.5" y="25" font-family="Arial" font-size="16" fill="white" text-anchor="middle">?</text>
    
    <rect x="90" y="0" width="35" height="35" rx="4" fill="#667eea"/>
    <text x="107.5" y="25" font-family="Arial" font-size="20" fill="white" text-anchor="middle">🍌</text>
    
    <rect x="135" y="0" width="35" height="35" rx="4" fill="#4CAF50"/>
    <text x="152.5" y="25" font-family="Arial" font-size="20" fill="white" text-anchor="middle">🍎</text>
    
    <!-- Row 2 -->
    <rect x="0" y="45" width="35" height="35" rx="4" fill="#667eea"/>
    <text x="17.5" y="70" font-family="Arial" font-size="16" fill="white" text-anchor="middle">?</text>
    
    <rect x="45" y="45" width="35" height="35" rx="4" fill="#4CAF50"/>
    <text x="62.5" y="70" font-family="Arial" font-size="20" fill="white" text-anchor="middle">🍌</text>
    
    <rect x="90" y="45" width="35" height="35" rx="4" fill="#667eea"/>
    <text x="107.5" y="70" font-family="Arial" font-size="16" fill="white" text-anchor="middle">?</text>
    
    <rect x="135" y="45" width="35" height="35" rx="4" fill="#667eea"/>
    <text x="152.5" y="70" font-family="Arial" font-size="20" fill="white" text-anchor="middle">🍒</text>
    
    <!-- Row 3 -->
    <rect x="0" y="90" width="35" height="35" rx="4" fill="#667eea"/>
    <text x="17.5" y="115" font-family="Arial" font-size="16" fill="white" text-anchor="middle">?</text>
    
    <rect x="45" y="90" width="35" height="35" rx="4" fill="#667eea"/>
    <text x="62.5" y="115" font-family="Arial" font-size="20" fill="white" text-anchor="middle">🍇</text>
    
    <rect x="90" y="90" width="35" height="35" rx="4" fill="#667eea"/>
    <text x="107.5" y="115" font-family="Arial" font-size="16" fill="white" text-anchor="middle">?</text>
    
    <rect x="135" y="90" width="35" height="35" rx="4" fill="#667eea"/>
    <text x="152.5" y="115" font-family="Arial" font-size="16" fill="white" text-anchor="middle">?</text>
  </g>
  
  <!-- Stats -->
  <text x="220" y="60" font-family="Arial" font-size="12" fill="#666">Pairs: 2/6</text>
  <text x="220" y="80" font-family="Arial" font-size="12" fill="#666">Moves: 8</text>
  <text x="220" y="100" font-family="Arial" font-size="12" fill="#666">Time: 01:23</text>
  
  <!-- Decorative elements -->
  <circle cx="240" cy="130" r="3" fill="#4CAF50"/>
  <circle cx="255" cy="125" r="3" fill="#667eea"/>
  <circle cx="270" cy="135" r="3" fill="#FF9800"/>
</svg>